<?xml version="1.0" encoding="UTF-8" standalone="no"?>
<!DOCTYPE svg PUBLIC "-//W3C//DTD SVG 1.1//EN"
 "http://www.w3.org/Graphics/SVG/1.1/DTD/svg11.dtd">
<!-- Generated by graphviz version 15.1.0 (0)
 -->
<!-- Title: linear Pages: 1 -->
<svg width="1942pt" height="760pt"
 viewBox="0.00 0.00 1942.00 760.00" xmlns="http://www.w3.org/2000/svg" xmlns:xlink="http://www.w3.org/1999/xlink">
<g id="graph0" class="graph" transform="scale(1 1) rotate(0) translate(4 755.64)">
<title>linear</title>
<polygon fill="white" stroke="none" points="-4,4 -4,-755.64 1937.92,-755.64 1937.92,4 -4,4"/>
<text xml:space="preserve" text-anchor="start" x="781.71" y="-735.34" font-family="DejaVu Sans" font-weight="bold" font-size="14.00">Linear Leios: the rules of </text>
<text xml:space="preserve" text-anchor="start" x="981.21" y="-735.34" font-family="DejaVu Sans" font-weight="bold" font-style="italic" font-size="14.00">_&#45;⟦_/_⟧⇀_</text>
<text xml:space="preserve" text-anchor="start" x="1044.96" y="-735.34" font-family="DejaVu Sans" font-weight="bold" font-size="14.00"> over one slot</text>
<text xml:space="preserve" text-anchor="start" x="859.34" y="-725.14" font-family="DejaVu Sans" font-size="10.00">edge label: </text>
<text xml:space="preserve" text-anchor="start" x="916.34" y="-725.14" font-family="DejaVu Sans" font-weight="bold" font-size="10.00">rule</text>
<text xml:space="preserve" text-anchor="start" x="938.84" y="-725.14" font-family="DejaVu Sans" font-size="10.00"> [premise] &#160;/ &#160;input ⇒ output</text>
<g id="clust1" class="cluster">
<title>cluster_slot</title>
<path fill="white" stroke="#8a94a8" stroke-dasharray="5,2" d="M146.56,-100.64C146.56,-100.64 1245.66,-100.64 1245.66,-100.64 1251.66,-100.64 1257.66,-106.64 1257.66,-112.64 1257.66,-112.64 1257.66,-699.64 1257.66,-699.64 1257.66,-705.64 1251.66,-711.64 1245.66,-711.64 1245.66,-711.64 146.56,-711.64 146.56,-711.64 140.56,-711.64 134.56,-705.64 134.56,-699.64 134.56,-699.64 134.56,-112.64 134.56,-112.64 134.56,-106.64 140.56,-100.64 146.56,-100.64"/>
<text xml:space="preserve" text-anchor="start" x="520.24" y="-697.24" font-family="DejaVu Sans" font-weight="bold" font-size="12.00">Upkeep of the current slot</text>
<text xml:space="preserve" text-anchor="start" x="699.49" y="-697.24" font-family="DejaVu Sans" font-size="12.00"> &#160;</text>
<text xml:space="preserve" text-anchor="start" x="706.99" y="-697.24" font-family="DejaVu Sans" font-size="10.00">(three regions, interleaved freely)</text>
</g>
<g id="clust2" class="cluster">
<title>cluster_eb</title>
<path fill="white" stroke="#c7cddb" d="M166.56,-320.64C166.56,-320.64 796.51,-320.64 796.51,-320.64 802.51,-320.64 808.51,-326.64 808.51,-332.64 808.51,-332.64 808.51,-455.64 808.51,-455.64 808.51,-461.64 802.51,-467.64 796.51,-467.64 796.51,-467.64 166.56,-467.64 166.56,-467.64 160.56,-467.64 154.56,-461.64 154.56,-455.64 154.56,-455.64 154.56,-332.64 154.56,-332.64 154.56,-326.64 160.56,-320.64 166.56,-320.64"/>
<text xml:space="preserve" text-anchor="start" x="455.66" y="-453.24" font-family="DejaVu Sans" font-weight="bold" font-size="12.00">EB&#45;Role</text>
</g>
<g id="clust3" class="cluster">
<title>cluster_vt</title>
<path fill="white" stroke="#c7cddb" d="M167.31,-108.64C167.31,-108.64 774.01,-108.64 774.01,-108.64 780.01,-108.64 786.01,-114.64 786.01,-120.64 786.01,-120.64 786.01,-300.64 786.01,-300.64 786.01,-306.64 780.01,-312.64 774.01,-312.64 774.01,-312.64 167.31,-312.64 167.31,-312.64 161.31,-312.64 155.31,-306.64 155.31,-300.64 155.31,-300.64 155.31,-120.64 155.31,-120.64 155.31,-114.64 161.31,-108.64 167.31,-108.64"/>
<text xml:space="preserve" text-anchor="start" x="445.54" y="-298.24" font-family="DejaVu Sans" font-weight="bold" font-size="12.00">VT&#45;Role</text>
</g>
<g id="clust4" class="cluster">
<title>cluster_cert</title>
<path fill="white" stroke="#c7cddb" d="M154.56,-475.64C154.56,-475.64 1237.66,-475.64 1237.66,-475.64 1243.66,-475.64 1249.66,-481.64 1249.66,-487.64 1249.66,-487.64 1249.66,-669.64 1249.66,-669.64 1249.66,-675.64 1243.66,-681.64 1237.66,-681.64 1237.66,-681.64 154.56,-681.64 154.56,-681.64 148.56,-681.64 142.56,-675.64 142.56,-669.64 142.56,-669.64 142.56,-487.64 142.56,-487.64 142.56,-481.64 148.56,-475.64 154.56,-475.64"/>
<text xml:space="preserve" text-anchor="start" x="627.86" y="-483.49" font-family="DejaVu Sans" font-weight="bold" font-size="12.00">CertCheck and Base</text>
</g>
<!-- start -->
<g id="node1" class="node">
<title>start</title>
<ellipse fill="#3b4a6b" stroke="#3b4a6b" cx="5.4" cy="-388.64" rx="5.4" ry="5.4"/>
</g>
<!-- fork -->
<g id="node2" class="node">
<title>fork</title>
<polygon fill="#3b4a6b" stroke="#3b4a6b" points="83.56,-503.84 77.8,-503.84 77.8,-273.44 83.56,-273.44 83.56,-503.84"/>
</g>
<!-- start&#45;&gt;fork -->
<g id="edge1" class="edge">
<title>start&#45;&gt;fork</title>
<path fill="none" stroke="#3b4a6b" d="M11.21,-388.64C22.69,-388.64 51.95,-388.64 68.26,-388.64"/>
<polygon fill="#3b4a6b" stroke="#3b4a6b" points="67.89,-391.44 75.89,-388.64 67.89,-385.84 67.89,-391.44"/>
</g>
<!-- ebOpen -->
<g id="node4" class="node">
<title>ebOpen</title>
<path fill="#f4f6fa" stroke="#3b4a6b" d="M284.36,-406.64C284.36,-406.64 174.56,-406.64 174.56,-406.64 168.56,-406.64 162.56,-400.64 162.56,-394.64 162.56,-394.64 162.56,-382.64 162.56,-382.64 162.56,-376.64 168.56,-370.64 174.56,-370.64 174.56,-370.64 284.36,-370.64 284.36,-370.64 290.36,-370.64 296.36,-376.64 296.36,-382.64 296.36,-382.64 296.36,-394.64 296.36,-394.64 296.36,-400.64 290.36,-406.64 284.36,-406.64"/>
<text xml:space="preserve" text-anchor="start" x="176.96" y="-384.51" font-family="DejaVu Sans" font-size="12.00">EB&#45;Role unsettled</text>
</g>
<!-- fork&#45;&gt;ebOpen -->
<g id="edge12" class="edge">
<title>fork&#45;&gt;ebOpen</title>
<path fill="none" stroke="#3b4a6b" d="M83.75,-388.64C91.84,-388.64 122.33,-388.64 153.25,-388.64"/>
<polygon fill="#3b4a6b" stroke="#3b4a6b" points="152.89,-391.44 160.89,-388.64 152.89,-385.84 152.89,-391.44"/>
</g>
<!-- vtOpen -->
<g id="node6" class="node">
<title>vtOpen</title>
<path fill="#f4f6fa" stroke="#3b4a6b" d="M283.61,-251.64C283.61,-251.64 175.31,-251.64 175.31,-251.64 169.31,-251.64 163.31,-245.64 163.31,-239.64 163.31,-239.64 163.31,-227.64 163.31,-227.64 163.31,-221.64 169.31,-215.64 175.31,-215.64 175.31,-215.64 283.61,-215.64 283.61,-215.64 289.61,-215.64 295.61,-221.64 295.61,-227.64 295.61,-227.64 295.61,-239.64 295.61,-239.64 295.61,-245.64 289.61,-251.64 283.61,-251.64"/>
<text xml:space="preserve" text-anchor="start" x="177.71" y="-229.51" font-family="DejaVu Sans" font-size="12.00">VT&#45;Role unsettled</text>
</g>
<!-- fork&#45;&gt;vtOpen -->
<g id="edge13" class="edge">
<title>fork&#45;&gt;vtOpen</title>
<path fill="none" stroke="#3b4a6b" d="M83.98,-384.57C90.8,-372.74 111.81,-337.57 134.56,-312.64 152.99,-292.44 176.53,-272.64 195.44,-257.92"/>
<polygon fill="#3b4a6b" stroke="#3b4a6b" points="197.13,-260.15 201.76,-253.06 193.71,-255.71 197.13,-260.15"/>
</g>
<!-- Open -->
<g id="node8" class="node">
<title>Open</title>
<path fill="#f4f6fa" stroke="#3b4a6b" d="M296.36,-555.84C296.36,-555.84 162.56,-555.84 162.56,-555.84 156.56,-555.84 150.56,-549.84 150.56,-543.84 150.56,-543.84 150.56,-531.44 150.56,-531.44 150.56,-525.44 156.56,-519.44 162.56,-519.44 162.56,-519.44 296.36,-519.44 296.36,-519.44 302.36,-519.44 308.36,-525.44 308.36,-531.44 308.36,-531.44 308.36,-543.84 308.36,-543.84 308.36,-549.84 302.36,-555.84 296.36,-555.84"/>
<text xml:space="preserve" text-anchor="start" x="211.84" y="-538.24" font-family="DejaVu Sans" font-weight="bold" font-size="12.00">Open</text>
<text xml:space="preserve" text-anchor="start" x="164.96" y="-528.14" font-family="DejaVu Sans" font-size="10.00">CertCheck, Base unsettled</text>
</g>
<!-- fork&#45;&gt;Open -->
<g id="edge14" class="edge">
<title>fork&#45;&gt;Open</title>
<path fill="none" stroke="#3b4a6b" d="M84.05,-394.3C90.45,-409.06 109.3,-449.41 134.56,-475.64 149,-490.63 167.69,-503.88 184.59,-514.25"/>
<polygon fill="#3b4a6b" stroke="#3b4a6b" points="183.11,-516.63 191.41,-518.32 185.98,-511.82 183.11,-516.63"/>
</g>
<!-- join -->
<g id="node3" class="node">
<title>join</title>
<polygon fill="#3b4a6b" stroke="#3b4a6b" points="1314.42,-503.84 1308.66,-503.84 1308.66,-273.44 1314.42,-273.44 1314.42,-503.84"/>
</g>
<!-- slot1 -->
<g id="node11" class="node">
<title>slot1</title>
<path fill="#f4f6fa" stroke="none" d="M1728.55,-414.14C1728.55,-414.14 1586.8,-414.14 1586.8,-414.14 1580.8,-414.14 1574.8,-408.14 1574.8,-402.14 1574.8,-402.14 1574.8,-375.14 1574.8,-375.14 1574.8,-369.14 1580.8,-363.14 1586.8,-363.14 1586.8,-363.14 1728.55,-363.14 1728.55,-363.14 1734.55,-363.14 1740.55,-369.14 1740.55,-375.14 1740.55,-375.14 1740.55,-402.14 1740.55,-402.14 1740.55,-408.14 1734.55,-414.14 1728.55,-414.14"/>
<text xml:space="preserve" text-anchor="start" x="1613.42" y="-403.74" font-family="DejaVu Sans" font-weight="bold" font-size="12.00">Slot</text>
<text xml:space="preserve" text-anchor="start" x="1640.42" y="-403.74" font-family="DejaVu Sans" font-size="12.00"> &#160;[allDone]</text>
<text xml:space="preserve" text-anchor="start" x="1574.8" y="-391.74" font-family="DejaVu Sans" font-size="12.00">FFD&#45;OUT msgs ⇒ FTCH&#45;LDG</text>
<text xml:space="preserve" text-anchor="start" x="1624.3" y="-382.59" font-family="DejaVu Sans" font-size="9.00">slot := suc slot</text>
<text xml:space="preserve" text-anchor="start" x="1628.42" y="-373.59" font-family="DejaVu Sans" font-size="9.00">Upkeep := []</text>
<text xml:space="preserve" text-anchor="start" x="1604.8" y="-364.59" font-family="DejaVu Sans" font-size="9.00">proposedEB := nothing</text>
</g>
<!-- join&#45;&gt;slot1 -->
<g id="edge19" class="edge">
<title>join&#45;&gt;slot1</title>
<path fill="none" stroke="#3b4a6b" d="M1314.74,-388.64C1334.31,-388.64 1480.3,-388.64 1575.09,-388.64"/>
</g>
<!-- ebDone -->
<g id="node5" class="node">
<title>ebDone</title>
<path fill="#f4f6fa" stroke="#3b4a6b" d="M788.51,-406.84C788.51,-406.84 650.21,-406.84 650.21,-406.84 644.21,-406.84 638.21,-400.84 638.21,-394.84 638.21,-394.84 638.21,-382.44 638.21,-382.44 638.21,-376.44 644.21,-370.44 650.21,-370.44 650.21,-370.44 788.51,-370.44 788.51,-370.44 794.51,-370.44 800.51,-376.44 800.51,-382.44 800.51,-382.44 800.51,-394.84 800.51,-394.84 800.51,-400.84 794.51,-406.84 788.51,-406.84"/>
<text xml:space="preserve" text-anchor="start" x="674.36" y="-389.24" font-family="DejaVu Sans" font-size="12.00">EB&#45;Role settled</text>
<text xml:space="preserve" text-anchor="start" x="652.61" y="-379.14" font-family="DejaVu Sans" font-size="10.00">proposedEB set if produced</text>
</g>
<!-- ebOpen&#45;&gt;ebDone -->
<g id="edge2" class="edge">
<title>ebOpen&#45;&gt;ebDone</title>
<path fill="none" stroke="#3b4a6b" d="M296.77,-388.64C382.63,-388.64 532.6,-388.64 628.6,-388.64"/>
<polygon fill="#3b4a6b" stroke="#3b4a6b" points="628.49,-391.44 636.49,-388.64 628.49,-385.84 628.49,-391.44"/>
<text xml:space="preserve" text-anchor="start" x="377.36" y="-400.14" font-family="DejaVu Sans" font-weight="bold" font-size="10.00">EB&#45;Role</text>
<text xml:space="preserve" text-anchor="start" x="420.86" y="-400.14" font-family="DejaVu Sans" font-size="10.00"> [CanProposeEB s π eb]</text>
<text xml:space="preserve" text-anchor="start" x="376.99" y="-390.14" font-family="DejaVu Sans" font-size="10.00">SLOT ⇒ FFD&#45;IN (Send ebHeader)</text>
</g>
<!-- ebOpen&#45;&gt;ebDone -->
<g id="edge3" class="edge">
<title>ebOpen&#45;&gt;ebDone</title>
<path fill="none" stroke="#8a94a8" d="M292.12,-370.2C308.02,-366.24 325.2,-362.65 341.36,-360.64 442.25,-348.1 468.89,-351.16 570.11,-360.64 589.16,-362.42 609.41,-365.47 628.62,-368.91"/>
<polygon fill="#8a94a8" stroke="#8a94a8" points="628.1,-371.66 636.47,-370.35 629.11,-366.15 628.1,-371.66"/>
<text xml:space="preserve" text-anchor="start" x="343.99" y="-372.14" font-family="DejaVu Sans" font-weight="bold" font-size="10.00" fill="#5a6478">No&#45;EB&#45;Role</text>
<text xml:space="preserve" text-anchor="start" x="406.99" y="-372.14" font-family="DejaVu Sans" font-size="10.00" fill="#5a6478"> [¬ ∃ π eb. CanProposeEB s π eb]</text>
<text xml:space="preserve" text-anchor="start" x="417.86" y="-362.14" font-family="DejaVu Sans" font-size="10.00" fill="#5a6478">SLOT ⇒ nothing</text>
</g>
<!-- ebDone&#45;&gt;join -->
<g id="edge15" class="edge">
<title>ebDone&#45;&gt;join</title>
<path fill="none" stroke="#3b4a6b" d="M800.88,-388.64C954.81,-388.64 1278.31,-388.64 1308.3,-388.64"/>
</g>
<!-- ebDone&#45;&gt;Open -->
<g id="edge18" class="edge">
<title>ebDone&#45;&gt;Open</title>
<path fill="none" stroke="#3b4a6b" stroke-dasharray="1,5" d="M676.61,-407.31C651.57,-420.62 621.17,-440.9 603.11,-467.64 565.15,-523.85 623,-574.18 570.11,-616.64 490.83,-680.28 438.2,-647.6 341.36,-616.64 307.98,-605.96 276.07,-581.16 255.12,-562.17"/>
<polygon fill="#3b4a6b" stroke="#3b4a6b" points="249.35,-556.81 257.66,-559.61 251.39,-558.7 255.21,-562.25 255.21,-562.25 255.21,-562.25 251.39,-558.7 252.76,-564.89 249.35,-556.81"/>
<text xml:space="preserve" text-anchor="start" x="404.36" y="-657.37" font-family="DejaVu Sans" font-style="italic" font-size="10.00">enables Base₁, Base₂</text>
</g>
<!-- vtDone -->
<g id="node7" class="node">
<title>vtDone</title>
<path fill="#f4f6fa" stroke="#3b4a6b" d="M766.01,-238.64C766.01,-238.64 672.71,-238.64 672.71,-238.64 666.71,-238.64 660.71,-232.64 660.71,-226.64 660.71,-226.64 660.71,-214.64 660.71,-214.64 660.71,-208.64 666.71,-202.64 672.71,-202.64 672.71,-202.64 766.01,-202.64 766.01,-202.64 772.01,-202.64 778.01,-208.64 778.01,-214.64 778.01,-214.64 778.01,-226.64 778.01,-226.64 778.01,-232.64 772.01,-238.64 766.01,-238.64"/>
<text xml:space="preserve" text-anchor="start" x="675.11" y="-216.51" font-family="DejaVu Sans" font-size="12.00">VT&#45;Role settled</text>
</g>
<!-- vtOpen&#45;&gt;vtDone -->
<g id="edge4" class="edge">
<title>vtOpen&#45;&gt;vtDone</title>
<path fill="none" stroke="#3b4a6b" d="M246.24,-215.17C265.95,-193.68 301.9,-159.39 341.36,-145.64 437.36,-112.18 471.22,-122.05 570.11,-145.64 611.78,-155.58 655.01,-179.23 683.95,-197.34"/>
<polygon fill="#3b4a6b" stroke="#3b4a6b" points="682.19,-199.54 690.45,-201.47 685.2,-194.82 682.19,-199.54"/>
<text xml:space="preserve" text-anchor="start" x="366.11" y="-157.14" font-family="DejaVu Sans" font-weight="bold" font-size="10.00">VT&#45;Role</text>
<text xml:space="preserve" text-anchor="start" x="408.11" y="-157.14" font-family="DejaVu Sans" font-size="10.00"> [CanVote s eb ebHash slot′]</text>
<text xml:space="preserve" text-anchor="start" x="418.99" y="-147.14" font-family="DejaVu Sans" font-size="10.00">SLOT ⇒ CAST v</text>
</g>
<!-- vtOpen&#45;&gt;vtDone -->
<g id="edge5" class="edge">
<title>vtOpen&#45;&gt;vtDone</title>
<path fill="none" stroke="#8a94a8" d="M285.12,-215.17C302.84,-210.05 322.74,-205.19 341.36,-202.64 449.13,-187.86 575.65,-199.82 651.3,-210.05"/>
<polygon fill="#8a94a8" stroke="#8a94a8" points="650.46,-212.76 658.76,-211.08 651.22,-207.21 650.46,-212.76"/>
<text xml:space="preserve" text-anchor="start" x="342.86" y="-214.14" font-family="DejaVu Sans" font-weight="bold" font-size="10.00" fill="#5a6478">No&#45;VT&#45;Role</text>
<text xml:space="preserve" text-anchor="start" x="403.61" y="-214.14" font-family="DejaVu Sans" font-size="10.00" fill="#5a6478"> [¬ ∃ eb ebHash slot′. CanVote …]</text>
<text xml:space="preserve" text-anchor="start" x="417.86" y="-204.14" font-family="DejaVu Sans" font-size="10.00" fill="#5a6478">SLOT ⇒ nothing</text>
</g>
<!-- vtOpen&#45;&gt;vtDone -->
<g id="edge6" class="edge">
<title>vtOpen&#45;&gt;vtDone</title>
<path fill="none" stroke="#8a94a8" d="M295.9,-232.67C364.3,-231.58 474.76,-229.55 570.11,-226.64 596.48,-225.83 625.48,-224.71 650.78,-223.66"/>
<polygon fill="#8a94a8" stroke="#8a94a8" points="650.9,-226.45 658.77,-223.32 650.66,-220.86 650.9,-226.45"/>
<text xml:space="preserve" text-anchor="start" x="377.36" y="-243.37" font-family="DejaVu Sans" font-weight="bold" font-size="10.00" fill="#5a6478">VT&#45;Defer</text>
<text xml:space="preserve" text-anchor="start" x="426.11" y="-243.37" font-family="DejaVu Sans" font-size="10.00" fill="#5a6478"> [slot &lt; voteDeadline]</text>
<text xml:space="preserve" text-anchor="start" x="417.86" y="-233.37" font-family="DejaVu Sans" font-size="10.00" fill="#5a6478">SLOT ⇒ nothing</text>
</g>
<!-- vtDone&#45;&gt;join -->
<g id="edge16" class="edge">
<title>vtDone&#45;&gt;join</title>
<path fill="none" stroke="#3b4a6b" d="M778.29,-237.13C920.6,-277.64 1278.01,-379.38 1308.46,-388.05"/>
</g>
<!-- Awaiting -->
<g id="node9" class="node">
<title>Awaiting</title>
<path fill="#f4f6fa" stroke="#3b4a6b" d="M778.01,-635.84C778.01,-635.84 660.71,-635.84 660.71,-635.84 654.71,-635.84 648.71,-629.84 648.71,-623.84 648.71,-623.84 648.71,-601.44 648.71,-601.44 648.71,-595.44 654.71,-589.44 660.71,-589.44 660.71,-589.44 778.01,-589.44 778.01,-589.44 784.01,-589.44 790.01,-595.44 790.01,-601.44 790.01,-601.44 790.01,-623.84 790.01,-623.84 790.01,-629.84 784.01,-635.84 778.01,-635.84"/>
<text xml:space="preserve" text-anchor="start" x="663.11" y="-618.24" font-family="DejaVu Sans" font-weight="bold" font-size="12.00">Awaiting answer</text>
<text xml:space="preserve" text-anchor="start" x="675.86" y="-608.14" font-family="DejaVu Sans" font-size="10.00">CertCheck settled</text>
<text xml:space="preserve" text-anchor="start" x="665.74" y="-598.14" font-family="DejaVu Sans" font-size="10.00">PendingQuery = just r</text>
</g>
<!-- Open&#45;&gt;Awaiting -->
<g id="edge8" class="edge">
<title>Open&#45;&gt;Awaiting</title>
<path fill="none" stroke="#3b4a6b" d="M308.85,-549.69C399.61,-563.64 548.25,-586.49 639.3,-600.48"/>
<polygon fill="#3b4a6b" stroke="#3b4a6b" points="638.64,-603.22 646.97,-601.66 639.49,-597.68 638.64,-603.22"/>
<text xml:space="preserve" text-anchor="start" x="341.36" y="-599.88" font-family="DejaVu Sans" font-weight="bold" font-size="10.00">Base₂</text>
<text xml:space="preserve" text-anchor="start" x="372.86" y="-599.88" font-family="DejaVu Sans" font-size="10.00"> [EB&#45;Role settled, certRequest ≡ just eb]</text>
<text xml:space="preserve" text-anchor="start" x="377.36" y="-589.88" font-family="DejaVu Sans" font-size="10.00">SLOT ⇒ QUERY (hash currentRB)</text>
</g>
<!-- Submitted -->
<g id="node10" class="node">
<title>Submitted</title>
<path fill="#f4f6fa" stroke="#3b4a6b" d="M1229.66,-574.84C1229.66,-574.84 1107.86,-574.84 1107.86,-574.84 1101.86,-574.84 1095.86,-568.84 1095.86,-562.84 1095.86,-562.84 1095.86,-550.44 1095.86,-550.44 1095.86,-544.44 1101.86,-538.44 1107.86,-538.44 1107.86,-538.44 1229.66,-538.44 1229.66,-538.44 1235.66,-538.44 1241.66,-544.44 1241.66,-550.44 1241.66,-550.44 1241.66,-562.84 1241.66,-562.84 1241.66,-568.84 1235.66,-574.84 1229.66,-574.84"/>
<text xml:space="preserve" text-anchor="start" x="1123.01" y="-557.24" font-family="DejaVu Sans" font-weight="bold" font-size="12.00">RB submitted</text>
<text xml:space="preserve" text-anchor="start" x="1110.26" y="-547.14" font-family="DejaVu Sans" font-size="10.00">CertCheck, Base settled</text>
</g>
<!-- Open&#45;&gt;Submitted -->
<g id="edge7" class="edge">
<title>Open&#45;&gt;Submitted</title>
<path fill="none" stroke="#3b4a6b" d="M308.83,-537.03C456.46,-536.26 785.83,-536.26 1062.86,-548.64 1070.47,-548.98 1078.38,-549.42 1086.29,-549.92"/>
<polygon fill="#3b4a6b" stroke="#3b4a6b" points="1085.89,-552.7 1094.06,-550.43 1086.26,-547.11 1085.89,-552.7"/>
<text xml:space="preserve" text-anchor="start" x="603.11" y="-552.65" font-family="DejaVu Sans" font-weight="bold" font-size="10.00">Base₁</text>
<text xml:space="preserve" text-anchor="start" x="634.61" y="-552.65" font-family="DejaVu Sans" font-size="10.00"> [EB&#45;Role settled, certRequest ≡ nothing]</text>
<text xml:space="preserve" text-anchor="start" x="636.86" y="-542.65" font-family="DejaVu Sans" font-size="10.00">SLOT ⇒ SUBMIT (mkRB s nothing)</text>
</g>
<!-- Awaiting&#45;&gt;Awaiting -->
<g id="edge9" class="edge">
<title>Awaiting&#45;&gt;Awaiting</title>
<path fill="none" stroke="#b5651d" d="M677.45,-636.18C665.21,-652.18 679.18,-667.84 719.36,-667.84 752.32,-667.84 767.64,-657.3 765.33,-644.68"/>
<polygon fill="#b5651d" stroke="#b5651d" points="767.89,-643.56 761.92,-637.55 762.84,-645.97 767.89,-643.56"/>
<text xml:space="preserve" text-anchor="start" x="653.74" y="-679.34" font-family="DejaVu Sans" font-weight="bold" font-size="10.00" fill="#8a4a12">Cert₃</text>
<text xml:space="preserve" text-anchor="start" x="682.24" y="-679.34" font-family="DejaVu Sans" font-size="10.00" fill="#8a4a12"> [r ≢ hash currentRB]</text>
<text xml:space="preserve" text-anchor="start" x="636.86" y="-669.34" font-family="DejaVu Sans" font-size="10.00" fill="#8a4a12">CERT c ⇒ QUERY (hash currentRB)</text>
</g>
<!-- Awaiting&#45;&gt;Submitted -->
<g id="edge10" class="edge">
<title>Awaiting&#45;&gt;Submitted</title>
<path fill="none" stroke="#3b4a6b" d="M790.21,-590.55C814.76,-583.66 842.68,-576.78 868.61,-572.64 941.49,-560.99 1025.5,-557.34 1085.9,-556.4"/>
<polygon fill="#3b4a6b" stroke="#3b4a6b" points="1085.91,-559.2 1093.87,-556.29 1085.83,-553.6 1085.91,-559.2"/>
<text xml:space="preserve" text-anchor="start" x="868.61" y="-584.14" font-family="DejaVu Sans" font-weight="bold" font-size="10.00">Cert₁</text>
<text xml:space="preserve" text-anchor="start" x="897.11" y="-584.14" font-family="DejaVu Sans" font-size="10.00"> [r ≡ hash currentRB, c certifies it]</text>
<text xml:space="preserve" text-anchor="start" x="894.86" y="-574.14" font-family="DejaVu Sans" font-size="10.00">CERT c ⇒ SUBMIT (mkRB s c)</text>
</g>
<!-- Awaiting&#45;&gt;Submitted -->
<g id="edge11" class="edge">
<title>Awaiting&#45;&gt;Submitted</title>
<path fill="none" stroke="#b5651d" d="M790.38,-615.8C860.18,-617.45 970.06,-615.98 1062.86,-596.64 1081.88,-592.67 1102,-585.73 1119.47,-578.73"/>
<polygon fill="#b5651d" stroke="#b5651d" points="1120.08,-581.51 1126.41,-575.88 1117.95,-576.33 1120.08,-581.51"/>
<text xml:space="preserve" text-anchor="start" x="891.49" y="-627.41" font-family="DejaVu Sans" font-weight="bold" font-size="10.00" fill="#8a4a12">Cert₂</text>
<text xml:space="preserve" text-anchor="start" x="919.99" y="-627.41" font-family="DejaVu Sans" font-size="10.00" fill="#8a4a12"> [certRequest ≡ nothing]</text>
<text xml:space="preserve" text-anchor="start" x="879.11" y="-617.41" font-family="DejaVu Sans" font-size="10.00" fill="#8a4a12">CERT c ⇒ SUBMIT (mkRB s nothing)</text>
</g>
<!-- Submitted&#45;&gt;join -->
<g id="edge17" class="edge">
<title>Submitted&#45;&gt;join</title>
<path fill="none" stroke="#3b4a6b" d="M1185.36,-538.02C1218.58,-498.38 1294.4,-407.9 1308.32,-391.28"/>
</g>
<!-- slot1&#45;&gt;fork -->
<g id="edge20" class="edge">
<title>slot1&#45;&gt;fork</title>
<path fill="none" stroke="#3b4a6b" d="M1605.07,-363.16C1478.11,-302.14 1138.79,-149.08 835.61,-100.64 527.93,-51.48 373.95,98.8 134.56,-100.64 102,-127.76 89.42,-241.71 84.61,-317.89"/>
<polygon fill="#3b4a6b" stroke="#3b4a6b" points="81.84,-317.31 84.15,-325.47 87.43,-317.65 81.84,-317.31"/>
<text xml:space="preserve" text-anchor="start" x="944.36" y="-155.63" font-family="DejaVu Sans" font-size="10.00">next slot</text>
</g>
<!-- anyrules -->
<g id="node12" class="node">
<title>anyrules</title>
<path fill="#f4f6fa" stroke="none" d="M1921.92,-577.14C1921.92,-577.14 1393.42,-577.14 1393.42,-577.14 1387.42,-577.14 1381.42,-571.14 1381.42,-565.14 1381.42,-565.14 1381.42,-490.14 1381.42,-490.14 1381.42,-484.14 1387.42,-478.14 1393.42,-478.14 1393.42,-478.14 1921.92,-478.14 1921.92,-478.14 1927.92,-478.14 1933.92,-484.14 1933.92,-490.14 1933.92,-490.14 1933.92,-565.14 1933.92,-565.14 1933.92,-571.14 1927.92,-577.14 1921.92,-577.14"/>
<path fill="#f4f6fa" stroke="none" d="M1393.42,-478.14C1393.42,-478.14 1921.92,-478.14 1921.92,-478.14 1927.92,-478.14 1933.92,-484.14 1933.92,-490.14 1933.92,-490.14 1933.92,-565.14 1933.92,-565.14 1933.92,-571.14 1927.92,-577.14 1921.92,-577.14 1921.92,-577.14 1393.42,-577.14 1393.42,-577.14 1387.42,-577.14 1381.42,-571.14 1381.42,-565.14 1381.42,-565.14 1381.42,-490.14 1381.42,-490.14 1381.42,-484.14 1387.42,-478.14 1393.42,-478.14"/>
<text xml:space="preserve" text-anchor="start" x="1387.42" y="-560.74" font-family="DejaVu Sans" font-weight="bold" font-size="12.00">Enabled in every state</text>
<text xml:space="preserve" text-anchor="start" x="1539.67" y="-560.74" font-family="DejaVu Sans" font-size="12.00"> &#160;</text>
<text xml:space="preserve" text-anchor="start" x="1547.17" y="-560.74" font-family="DejaVu Sans" font-size="10.00">(self&#45;loops, no upkeep change)</text>
<text xml:space="preserve" text-anchor="start" x="1387.42" y="-536.49" font-family="DejaVu Sans" font-weight="bold" font-size="12.00">Mempool</text>
<text xml:space="preserve" text-anchor="start" x="1458.92" y="-535.64" font-family="DejaVu Sans" font-size="12.00">SubmitTxs txs ⇒ nothing</text>
<text xml:space="preserve" text-anchor="start" x="1653.42" y="-535.64" font-family="DejaVu Sans" font-size="12.00">ToPropose := txs</text>
<text xml:space="preserve" text-anchor="start" x="1387.42" y="-512.24" font-family="DejaVu Sans" font-weight="bold" font-size="12.00">Chain</text>
<text xml:space="preserve" text-anchor="start" x="1458.92" y="-511.39" font-family="DejaVu Sans" font-size="12.00">BASE&#45;LDG rbs ⇒ nothing</text>
<text xml:space="preserve" text-anchor="start" x="1653.42" y="-512.24" font-family="DejaVu Sans" font-size="12.00">RBs := rbs &#160;</text>
<text xml:space="preserve" text-anchor="start" x="1723.17" y="-512.24" font-family="DejaVu Sans" font-size="12.00" fill="#8a4a12">(tip may change: why Cert₂, Cert₃)</text>
<text xml:space="preserve" text-anchor="start" x="1387.42" y="-487.99" font-family="DejaVu Sans" font-weight="bold" font-size="12.00">Fetch</text>
<text xml:space="preserve" text-anchor="start" x="1458.92" y="-487.14" font-family="DejaVu Sans" font-size="12.00">FetchLdgI ⇒ FetchLdgO Ledger</text>
<text xml:space="preserve" text-anchor="start" x="1653.42" y="-487.14" font-family="DejaVu Sans" font-size="12.00">state unchanged</text>
<path fill="none" stroke="#8a94a8" d="M1393.42,-478.14C1393.42,-478.14 1921.92,-478.14 1921.92,-478.14 1927.92,-478.14 1933.92,-484.14 1933.92,-490.14 1933.92,-490.14 1933.92,-565.14 1933.92,-565.14 1933.92,-571.14 1927.92,-577.14 1921.92,-577.14 1921.92,-577.14 1393.42,-577.14 1393.42,-577.14 1387.42,-577.14 1381.42,-571.14 1381.42,-565.14 1381.42,-565.14 1381.42,-490.14 1381.42,-490.14 1381.42,-484.14 1387.42,-478.14 1393.42,-478.14"/>
</g>
<!-- anyrules&#45;&gt;slot1 -->
</g>
</svg>
